<svg width="29" height="30" viewBox="0 0 29 30" fill="none" xmlns="http://www.w3.org/2000/svg">
<path fill-rule="evenodd" clip-rule="evenodd" d="M4.68217 0.922363C2.09628 0.922363 0 3.01864 0 5.60453V24.3332C0 26.9191 2.09628 29.0154 4.68217 29.0154H23.4109C25.9967 29.0154 28.093 26.9191 28.093 24.3332V5.60453C28.093 3.01864 25.9967 0.922363 23.4109 0.922363H4.68217ZM17.8305 7.34641C16.8431 7.30135 16.5469 7.29184 14.0465 7.29184C11.5461 7.29184 11.2499 7.30135 10.2625 7.34641C9.3495 7.38808 8.85367 7.54062 8.52369 7.66883C8.08659 7.83871 7.7746 8.04166 7.44693 8.36933C7.11926 8.697 6.9163 9.00899 6.74647 9.44606C6.61823 9.77607 6.46568 10.2719 6.42401 11.1849C6.37895 12.1723 6.36944 12.4685 6.36944 14.9689C6.36944 17.4693 6.37895 17.7654 6.42401 18.7529C6.46568 19.6659 6.61823 20.1618 6.74647 20.4917C6.9163 20.9288 7.11926 21.2408 7.44693 21.5684C7.7746 21.8961 8.08659 22.0991 8.52369 22.269C8.85367 22.3971 9.3495 22.5497 10.2625 22.5913C11.2498 22.6364 11.5459 22.646 14.0465 22.646C16.547 22.646 16.8432 22.6364 17.8305 22.5913C18.7434 22.5497 19.2393 22.3971 19.5694 22.269C20.0064 22.0991 20.3184 21.8961 20.646 21.5684C20.9737 21.2408 21.1766 20.9288 21.3465 20.4917C21.4748 20.1618 21.6273 19.6659 21.669 18.7529C21.714 17.7654 21.7235 17.4693 21.7235 14.9689C21.7235 12.4685 21.714 12.1723 21.669 11.1849C21.6273 10.2719 21.4748 9.77607 21.3465 9.44606C21.1766 9.00899 20.9737 8.697 20.646 8.36933C20.3184 8.04166 20.0064 7.83871 19.5694 7.66883C19.2393 7.54062 18.7434 7.38808 17.8305 7.34641ZM10.1856 5.66088C11.1844 5.61531 11.5033 5.60453 14.0465 5.60453C16.5898 5.60453 16.9086 5.61531 17.9074 5.66088C18.9041 5.70638 19.5848 5.86466 20.1805 6.09617C20.7963 6.33548 21.3185 6.65568 21.8392 7.17627C22.3597 7.69686 22.6798 8.21909 22.9192 8.83488C23.1508 9.43056 23.309 10.1112 23.3546 11.108C23.4001 12.1068 23.4109 12.4257 23.4109 14.9689C23.4109 17.5121 23.4001 17.831 23.3546 18.8298C23.309 19.8265 23.1508 20.5072 22.9192 21.1029C22.6798 21.7187 22.3597 22.2409 21.8392 22.7615C21.3185 23.2821 20.7963 23.6023 20.1805 23.8416C19.5848 24.0731 18.9041 24.2314 17.9074 24.2769C16.9086 24.3224 16.5898 24.3332 14.0465 24.3332C11.5033 24.3332 11.1844 24.3224 10.1856 24.2769C9.18884 24.2314 8.50816 24.0731 7.91247 23.8416C7.29668 23.6023 6.77446 23.2821 6.25387 22.7615C5.73328 22.2409 5.41308 21.7187 5.17376 21.1029C4.94227 20.5072 4.78398 19.8265 4.73849 18.8298C4.69292 17.831 4.68217 17.5121 4.68217 14.9689C4.68217 12.4257 4.69292 12.1068 4.73849 11.108C4.78398 10.1112 4.94227 9.43056 5.17376 8.83488C5.41308 8.21909 5.73328 7.69686 6.25387 7.17627C6.77446 6.65568 7.29668 6.33548 7.91247 6.09617C8.50816 5.86466 9.18884 5.70638 10.1856 5.66088ZM9.23776 14.9689C9.23776 12.3131 11.3907 10.1602 14.0465 10.1602C16.7022 10.1602 18.8552 12.3131 18.8552 14.9689C18.8552 17.6247 16.7022 19.7776 14.0465 19.7776C11.3907 19.7776 9.23776 17.6247 9.23776 14.9689ZM10.925 14.9689C10.925 16.6929 12.3225 18.0904 14.0465 18.0904C15.7704 18.0904 17.168 16.6929 17.168 14.9689C17.168 13.245 15.7704 11.8474 14.0465 11.8474C12.3225 11.8474 10.925 13.245 10.925 14.9689ZM19.0452 11.0939C19.6658 11.0939 20.1689 10.5908 20.1689 9.97018C20.1689 9.34956 19.6658 8.84647 19.0452 8.84647C18.4246 8.84647 17.9215 9.34956 17.9215 9.97018C17.9215 10.5908 18.4246 11.0939 19.0452 11.0939Z" fill="#F4F7F9"/>
</svg>
