<svg width="29" height="30" viewBox="0 0 29 30" fill="none" xmlns="http://www.w3.org/2000/svg">
<path fill-rule="evenodd" clip-rule="evenodd" d="M15.9202 29.0154H3.25515C1.9622 29.0154 0.914062 27.9673 0.914062 26.6743V3.26345C0.914062 1.9705 1.9622 0.922363 3.25515 0.922363H26.666C27.959 0.922363 29.0071 1.9705 29.0071 3.26345V26.6743C29.0071 27.9673 27.959 29.0154 26.666 29.0154H20.2984V18.1365H23.9502L24.4969 13.8967H20.2984V11.1897C20.2984 9.96216 20.6392 9.12567 22.3996 9.12567L24.6448 9.12461V5.33254C24.2564 5.28095 22.9237 5.16549 21.3733 5.16549C18.1361 5.16549 15.9202 7.14132 15.9202 10.7699V13.8967H12.2591V18.1365H15.9202V29.0154Z" fill="#F4F7F9"/>
</svg>
