<svg width="29" height="30" viewBox="0 0 29 30" fill="none" xmlns="http://www.w3.org/2000/svg">
<path fill-rule="evenodd" clip-rule="evenodd" d="M2.79812 0.922363C1.50517 0.922363 0.457031 1.9705 0.457031 3.26345V26.6743C0.457031 27.9673 1.50517 29.0154 2.79812 29.0154H26.209C27.502 29.0154 28.5501 27.9673 28.5501 26.6743V3.26345C28.5501 1.9705 27.502 0.922363 26.209 0.922363H2.79812ZM23.2531 5.60453L16.2857 13.5358L23.86 24.3332H18.2873L13.1849 17.0606L6.7975 24.3332H5.147L12.4532 16.0171L5.147 5.60453H10.7198L15.5502 12.4897L21.6027 5.60453H23.2531ZM9.92882 6.82338H7.3932L19.0651 23.1743H21.6014L9.92882 6.82338Z" fill="white"/>
</svg>
