<svg width="172" height="29" viewBox="0 0 172 29" fill="none" xmlns="http://www.w3.org/2000/svg">
<path d="M65.9812 13.2725V17.1317H75.3483C75.2197 18.1349 74.9562 19.0613 74.5579 19.9108C74.1595 20.7603 73.6782 21.4686 73.1118 22.0336C72.2384 22.8582 71.2488 23.5125 70.143 24.0027C69.0372 24.4908 67.6638 24.7359 66.0186 24.7359C64.2199 24.7359 62.5498 24.3122 61.0083 23.4626C59.4668 22.6131 58.2324 21.4042 57.3071 19.836C56.3818 18.2678 55.9192 16.467 55.9192 14.4335C55.9192 12.4001 56.3818 10.6013 57.3071 9.03104C58.2324 7.46284 59.4647 6.2519 61.0083 5.40445C62.5498 4.55492 64.2074 4.1312 65.9812 4.1312C67.4978 4.1312 68.8775 4.40122 70.1243 4.94126C71.3712 5.4813 72.4438 6.25398 73.3421 7.25721L76.3483 4.24752C75.1408 2.90987 73.6367 1.86925 71.838 1.1215C70.0393 0.375828 68.0995 0.00195312 66.0186 0.00195312C63.3983 0.00195312 60.9813 0.633387 58.7718 1.8921C56.5623 3.15289 54.8071 4.8831 53.5105 7.08274C52.2117 9.28237 51.5645 11.7333 51.5645 14.4335C51.5645 17.1338 52.2138 19.5847 53.5105 21.7843C54.8071 23.984 56.5623 25.7142 58.7718 26.975C60.9813 28.2358 63.3962 28.8651 66.0186 28.8651C70.2322 28.8651 73.6367 27.4901 76.2321 24.7359C77.4147 23.5519 78.2756 22.1561 78.8151 20.5485C79.3545 18.9408 79.6242 17.2625 79.6242 15.5116C79.6242 14.7389 79.5599 13.9932 79.4312 13.2725H65.9792H65.9812Z" fill="#F8FFF8"/>
<path d="M96.2153 12.1925L94.3833 11.613C92.6468 11.048 91.3709 10.456 90.5577 9.83708C89.7444 9.22018 89.3357 8.43504 89.3357 7.48374C89.3357 6.48051 89.7901 5.65798 90.6988 5.01408C91.6075 4.37226 92.7278 4.05032 94.0576 4.05032C95.3875 4.05032 96.4725 4.38473 97.3148 5.05355C98.1551 5.72237 98.7256 6.49505 99.0243 7.3695L103.136 5.70991C102.62 4.24348 101.603 2.92454 100.084 1.75514C98.5638 0.585738 96.5285 0 93.9788 0C92.2153 0 90.6344 0.340642 89.2361 1.02193C87.8378 1.70321 86.7465 2.62336 85.9602 3.78029C85.1739 4.93723 84.7798 6.19802 84.7798 7.56267C84.7798 9.54421 85.4436 11.1394 86.7735 12.3483C88.1034 13.5571 89.7444 14.4835 91.6987 15.1274L93.5307 15.7443C95.7277 16.49 97.2692 17.2294 98.1509 17.9626C99.0326 18.6958 99.4745 19.6285 99.4745 20.7605C99.4745 21.9963 98.9725 22.9663 97.9683 23.6746C96.9642 24.3829 95.7422 24.736 94.3045 24.736C92.7568 24.736 91.4353 24.2541 90.3357 23.2883C89.2361 22.3245 88.4706 21.0824 88.037 19.5641L83.7217 21.2237C84.454 23.6414 85.7839 25.5211 87.7112 26.8567C89.6386 28.1944 91.8087 28.8632 94.2236 28.8632C95.8252 28.8632 97.3771 28.5662 98.8833 27.9763C100.389 27.3864 101.63 26.4787 102.607 25.2553C103.584 24.034 104.072 22.5218 104.072 20.721C104.072 18.5089 103.387 16.7392 102.016 15.414C100.645 14.0889 98.7111 13.015 96.2153 12.1925Z" fill="#F8FFF8"/>
<path d="M117.033 0.614746L106.664 28.2441H111.444L113.95 21.182H125.089L127.556 28.2441H132.336L121.967 0.614746H117.033ZM115.376 17.1691L118.305 8.95009L119.384 5.74722H119.614L120.693 8.95009L123.622 17.1691H115.373H115.376Z" fill="#F8FFF8"/>
<path d="M167.18 0.614746L159.741 20.7583H159.51L153.652 0.614746H149.334L143.206 20.7978H142.973L135.536 0.614746H130.716L140.778 28.2462H145.249L151.378 7.7703H151.608L157.428 28.2462H162.015L172 0.614746H167.18Z" fill="#F8FFF8"/>
<path d="M8.31107 4.41635H17.813V17.3628C17.813 19.6538 17.1968 21.5855 16.0288 22.9419C15.1159 24.0053 13.8317 24.6679 12.2674 24.9006C10.7301 25.0771 9.69694 24.9047 9.69694 24.9047C8.17622 24.6908 6.97499 24.078 6.06837 23.0706H6.06629L5.84638 22.8152C4.76341 21.4713 4.19081 19.5853 4.19081 17.3628V16.9806H0V17.3649C0 19.6289 0.462648 21.6645 1.37342 23.4134C2.2842 25.1623 3.5933 26.5518 5.26755 27.5364C6.6306 28.3361 8.06211 28.793 9.69487 28.9467C9.69487 28.9467 10.5724 29.0672 12.2654 28.9467C13.9541 28.7909 15.5164 28.3298 16.8338 27.5572C18.4914 26.5851 19.7735 25.1955 20.6511 23.4258C21.5183 21.6728 21.9602 19.6289 21.9602 17.3628V0.56543H8.31107V4.41635Z" fill="#F8FFF8"/>
<path d="M29.0825 4.4183H35.8065V24.3957H29.0825V28.2466H35.8065H40.1238H46.8457V24.3957H40.1238V4.4183H46.8457V0.567383H29.0825V4.4183Z" fill="#F8FFF8"/>
</svg>
