<?xml version="1.0" encoding="UTF-8"?>
<svg id="Layer_1" xmlns="http://www.w3.org/2000/svg" version="1.1" viewBox="0 0 1920 373.31">
  <!-- Generator: Adobe Illustrator 29.5.1, SVG Export Plug-In . SVG Version: 2.1.0 Build 141)  -->
  <defs>
    <style>
      .st0 {
        fill: #c6c6c6;
      }

      .st1 {
        fill: #fff;
      }
    </style>
  </defs>
  <polygon class="st1" points="410.57 6 560.84 249.67 560.84 18.56 523.75 18.56 523.75 6 614.29 6 614.29 18.56 576.56 18.56 576.56 346.39 555.5 346.39 364.67 34.89 364.67 329.74 365.61 330.69 401.77 330.69 401.77 342.62 311.22 342.62 311.22 330.69 348.64 330.69 349.58 329.74 349.58 18.56 311.22 18.56 311.22 6 410.57 6"/>
  <path class="st1" d="M1038.58,15.61c59.38-4.44,108.45,24.93,111.41,88.05,2.71,57.91-32.69,96.34-90.23,99.53-66.87,3.7-111.11-34.27-107.22-102.7,2.75-48.35,38.42-81.32,86.04-84.88ZM1042.35,30.06c-37.56,3.33-57.44,33.85-59.6,69.21-3.08,50.34,18.36,94.16,75.12,90.11,49.99-3.57,65.82-50.2,61.31-93.87-4.48-43.3-32.29-69.39-76.83-65.44Z"/>
  <path class="st1" d="M1754.24,15.42c.09.06.2,1.18.9,1.9,15.33,15.71,29.74,32.28,44.67,48.35,26.22,28.22,52.71,56.21,79.24,84.14,1.42.26.87-.62.93-1.56,1.15-15.7-.49-32.07-.65-47.71-.29-27.63.26-55.1-1.86-82.61h22.64l-1.88,20.42c-.1,16.98-2.09,33.97-2.55,50.84-1.03,37.98.92,76.08.66,114.01-5.22.08-6.43.93-10.08-2.81-14.69-15.07-28.67-32.98-43.05-48.69-26.3-28.76-53.59-56.62-79.87-85.39-1.42-.26-.87.62-.93,1.55-2.02,27.62-.04,60.02.65,87.9.37,14.79-.13,29.63,1.86,44.3h-24.52c1.12-6.73,1.99-13.61,2.51-20.42,3.78-50.01,4.78-104.88,3.18-155.14-.09-2.86-1.21-6-.65-9.08h8.8Z"/>
  <path class="st1" d="M775.25,199.43h-32.69c-4.82-13.72-8.79-28.95-14.62-42.23-2.7-6.15-5.84-8.66-12.24-11.01-21.57-7.91-63.68-3.47-74.67,19.96-4.76,10.15-7.14,22.6-11.61,32.99l-25.18.91c27.02-60.19,52.85-120.94,76.69-182.49l19.77-.15,74.56,182.01ZM720.55,137.25l-35.2-85.4-33.33,85.4c18.37-5.45,38.83-9.28,57.69-3.93,3.82,1.08,7.06,3.03,10.84,3.93Z"/>
  <path class="st1" d="M1636.63,17.33l73.59,182.1-32.09-.26-15.68-44.03c-3.05-6.47-11.06-9.17-17.62-10.67-20.65-4.7-57.41-.77-68.03,20.61l-11.89,34.28-25.09.69c26.1-60.58,53.2-120.82,76.09-182.74,6.78,1,13.94.98,20.71.01ZM1655.52,137.26l-34.26-85.4-34.27,85.4c22.24-6.54,46.83-10.39,68.53,0Z"/>
  <path class="st1" d="M806.06,200.06c.63-5.94.38-11.93.64-17.89,1.86-44.03,2.09-86.5.6-130.61-.37-11.01-.4-21.99-1.23-33l78.94-.03c31.17,1.69,51.89,16.71,49.98,49.98-2.36,41.29-40.41,51.39-75.14,52.44-8.52.26-17.02-.12-25.49-.66l1.89,79.76h-30.18ZM834.36,104.6c12.85,2.18,26.85,2.66,39.74.44,24.28-4.17,33.85-21.79,31.93-45.34-1.91-23.32-19.88-25.96-39.26-26.73-10.76-.43-21.64.37-32.41.03v71.59Z"/>
  <rect class="st1" x="596.68" y="318.13" width="386.06" height="18.21"/>
  <rect class="st1" x="1524.11" y="318.13" width="386.06" height="18.21"/>
  <path class="st1" d="M1461.24,200.06c.29-7,.31-14.06.6-21.06,1.77-42.36,3.03-88.83,1.31-131.26-.14-3.57-1.17-7.24-.66-10.96l-28.61.64-27.36,2.5c1.97-6.45,1.96-14.92,0-21.34,4.29.11,8.62-.16,12.92-.04,29.73.88,58.19,1.18,87.97.63,12.9-.24,25.81-.23,38.69-.6-2.03,6.52-1.88,14.84,0,21.34l-27.36-2.5-28.61-.64c.52,3.93-.51,7.82-.66,11.59-1.43,37.08-.33,77.2.68,114.3.34,12.48.71,24.9,1.23,37.39h-30.18Z"/>
  <path class="st1" d="M1212.56,18.56c.27-.03.86-.86,1.57-.63-.07,1.36.11,2.75.03,4.11-1.26,23.37-1.73,46.42-1.89,69.65-.2,30.66-.34,61.48.6,92.03l50.64-.61,31.73-3.17v20.1h-111.29c.16-8.26.28-16.57.61-24.83,1.48-38.04,1.58-76.11.63-114.25-.36-14.26-.88-28.44-1.23-42.73.24-.94,1.37.31,1.58.31,8.16,0,19.3.9,27.04,0Z"/>
  <path class="st1" d="M1361.58,18.56c.37-.02,1.71-1.36,2.21-.31-1.22,9.25-.89,18.9-1.24,28.28-1.61,42.52-1.64,84.29,0,126.81.34,8.88.04,17.96,1.23,26.72h-30.81c.77-5.52.41-11.08.64-16.64,2.19-54.24,2.82-108.36-.66-162.64-.06-.94.06-1.91.03-2.85.68-.24,1.37.63,1.57.63,8.78,0,18.38.51,27.04,0Z"/>
  <path class="st1" d="M1499.59,341.99h-33.95c-.38,10.84,5.15,18.22,16.66,16.96,5.7-.63,7.78-4.09,10.14-8.74l6.53,1.52c1.39.94-1.51,6.13-2.25,7.18-5.13,7.27-16.2,8.61-24.31,6.77-23.15-5.26-22.29-49.97,4.2-51.98,19.43-1.48,25.41,10.61,22.98,28.29ZM1490.79,335.08c2.14-20.52-25.29-18.55-25.15,0h25.15Z"/>
  <path class="st1" d="M1092.78,365.23h-8.8v-36.74c0-.61-2.13-4.75-2.81-5.36-5.39-4.82-16.91.03-21.71,4.1v37.99h-8.8v-50.87h7.55s.95,5.66.95,5.66c8.65-6.81,27.63-11.17,32.51,2.06.22.59,1.12,3.62,1.12,3.9v39.25Z"/>
  <path class="st1" d="M1341.77,314.36v37.37c0,.17,1.1,2.63,1.35,3.05,4.47,7.44,17.41,2.07,22.54-2.42v-37.99h8.8v50.87h-7.55s-.63-5.65-.63-5.65c-8.53,7-27.37,11.01-32.19-2.07-.22-.59-1.12-3.62-1.12-3.9v-39.25h8.8Z"/>
  <path class="st1" d="M1158.77,328.15l-7.47,1.26c.07-9.96-16.19-12.78-20.08-5.23-5.5,10.66,13.18,11.5,18.95,13.56,7.36,2.64,10.69,7.17,9.89,15.25-1.81,18.29-38.26,18.37-40.09-.66l8.02-2.8c-.22,13.99,28.28,13.04,22.79-.47-2.59-6.37-19.74-4.39-25.84-11.25-5.94-6.69-3.45-18.43,4.51-22.31,11.15-5.45,29.29-2.28,29.32,12.65Z"/>
  <path class="st1" d="M1197.78,298.03v16.33h13.83v6.91h-13.83v32.34c0,.3,1.47,3.4,1.85,3.8,3.96,4.14,13.56-.85,14.53-.09l.94,6.05c-6.07,3.3-19.12,4.49-23.51-1.7-.82-1.16-2.62-5.59-2.62-6.8v-33.6l-7.56-.36v-6.55s7.56,0,7.56,0v-15.07l8.8-1.26Z"/>
  <path class="st1" d="M1291.47,298.03v16.33h13.83v6.91h-13.83v32.34c0,.3,1.47,3.4,1.85,3.8,3.96,4.14,13.56-.85,14.53-.09l.94,6.05c-6.07,3.3-19.12,4.49-23.51-1.7-.82-1.16-2.62-5.59-2.62-6.8v-33.6l-7.56-.36v-6.55s7.56,0,7.56,0v-15.07l8.8-1.26Z"/>
  <path class="st1" d="M1416.59,298.03v16.33h13.83v6.91h-13.83v32.34c0,.3,1.47,3.4,1.85,3.8,3.96,4.14,13.56-.85,14.53-.09l.94,6.05c-6.07,3.3-19.12,4.49-23.51-1.7-.82-1.16-2.62-5.59-2.62-6.8v-33.6l-7.56-.36v-6.55s7.56,0,7.56,0v-15.07l8.8-1.26Z"/>
  <rect class="st1" x="1007.9" y="293.63" width="8.8" height="71.59"/>
  <rect class="st1" x="1241.17" y="314.36" width="8.8" height="50.87"/>
  <path class="st1" d="M1244.16,291.88c11-1.78,10.63,16.22-1.77,12.15-4.38-1.44-4.54-11.13,1.77-12.15Z"/>
  <g>
    <path class="st1" d="M257.31,161.96h45.74c-3.85-74.84-63.75-134.85-138.54-138.91v45.74c49.57,3.92,89.07,43.54,92.8,93.17Z"/>
    <path class="st1" d="M9.83,161.96h45.74c3.73-49.62,43.21-89.23,92.77-93.16V23.06C73.56,27.13,13.68,87.13,9.83,161.96Z"/>
    <path class="st1" d="M257.31,177.31c-3.73,49.63-43.22,89.25-92.8,93.17v45.74c74.79-4.06,134.68-64.07,138.54-138.91h-45.74Z"/>
    <path class="st1" d="M55.57,177.31H9.83c3.85,74.83,63.74,134.84,138.51,138.91v-45.74c-49.56-3.93-89.04-43.55-92.77-93.16Z"/>
    <path class="st0" d="M55.57,161.96h92.77v-93.16c-49.56,3.93-89.04,43.55-92.77,93.16Z"/>
    <path class="st0" d="M164.51,68.8v93.17h92.8c-3.73-49.63-43.22-89.25-92.8-93.17Z"/>
    <path class="st0" d="M148.34,270.48v-93.16H55.57c3.72,49.62,43.21,89.23,92.77,93.16Z"/>
    <path class="st0" d="M257.31,177.31h-92.8v93.17c49.57-3.92,89.07-43.54,92.8-93.17Z"/>
  </g>
</svg>