<svg width="1412" height="258" viewBox="0 0 1412 258" fill="none" xmlns="http://www.w3.org/2000/svg">
<g clip-path="url(#clip0_1_147)">
<path d="M127.88 59.6567C125.521 66.3304 122.73 72.3623 119.511 78.6067C112.002 93.8968 103.417 108.328 93.1172 121.892C81.7457 136.753 70.3743 153.977 53.2091 162.594C41.4056 168.409 30.6779 173.795 17.1635 173.795C6.21975 173.795 -0.00170898 170.781 -0.00170898 158.934C-0.00170898 154.628 1.06977 148.813 3.43306 144.719C10.942 132.014 18.2393 120.817 27.8912 109.833C35.8322 101.004 44.4126 92.6045 52.9931 84.205C59.0028 78.3899 65.2243 73.2209 71.018 67.1933C78.527 59.2274 88.827 46.9511 100.626 46.9511C102.13 46.9511 102.773 47.5973 104.273 47.5973C108.351 47.5973 112.214 44.8003 116.716 44.8003C118.647 44.8003 120.362 45.4464 121.866 46.5218C124.657 48.8895 128.519 52.3369 128.519 56.4261C128.519 57.5015 128.303 58.5813 127.875 59.6567H127.88ZM115.216 58.3645C112.641 58.3645 96.7636 71.0701 94.4047 73.4377C85.8242 80.5451 78.743 89.5907 72.7333 99.0657C68.227 106.602 61.1458 112.63 57.0673 120.171C54.2806 125.34 39.6904 150.751 36.8993 153.119C36.2556 153.336 36.0396 153.548 35.8279 153.548C34.3244 153.548 34.1126 151.393 34.1126 150.534C34.1126 148.813 37.7591 144.29 39.2626 141.705C41.6216 135.89 46.1278 131.584 48.4911 125.769C55.3564 108.758 63.5091 98.8489 74.8805 84.6343C80.6743 77.0976 87.1117 71.0657 93.7653 64.3921C95.6965 62.6705 100.846 58.577 100.846 55.9925C100.846 54.0541 99.9867 53.1912 98.2715 53.1912C95.6965 53.1912 83.8973 62.883 82.1778 65.6843C77.2438 72.358 71.0223 77.9606 66.0841 84.6343C56.8599 96.6937 48.0591 108.536 39.2626 120.813C32.1814 130.288 25.5322 140.838 21.4537 152.039C20.3822 154.84 18.667 158.713 18.667 161.943C18.667 165.174 20.81 166.037 23.601 166.037C31.1099 166.037 47.4153 159.792 54.2849 155.916C76.384 144.069 92.4778 110.045 104.493 89.1528C107.28 83.9838 117.368 67.6183 117.368 61.3739C117.368 59.8649 116.94 58.3601 115.221 58.3601L115.216 58.3645Z" fill="white"/>
<path d="M154.269 159.364C150.191 162.594 146.328 165.179 141.822 166.901C138.175 168.41 131.31 170.994 127.232 170.994C123.153 170.994 121.654 168.197 119.291 164.966C118.647 164.32 118.219 163.457 118.219 162.382C118.219 154.629 140.75 137.834 140.75 133.523C140.75 132.014 137.959 131.802 136.888 131.802C135.6 131.802 134.101 132.231 132.382 132.877C128.091 135.245 124.445 138.263 120.366 140.631C115.86 143.428 111.782 147.521 108.563 152.044C105.128 156.996 100.41 161.736 97.6192 167.551C96.7595 169.06 95.2603 169.919 93.329 169.919H92.4693C89.6826 169.919 85.8201 169.702 85.8201 166.042C85.8201 164.533 86.4638 163.245 87.7513 161.948C92.0415 156.133 96.9798 151.181 100.41 145.154C101.482 143.645 107.275 136.108 107.275 135.032C107.275 134.603 107.059 134.386 106.848 134.386C106.42 134.386 89.8986 149.03 87.9673 149.03C87.3236 149.03 86.8915 148.384 86.8915 147.309C86.8915 146.233 88.3951 145.158 89.2505 144.512C94.1845 140.418 98.479 136.329 102.981 132.235C105.34 129.868 107.059 126.85 110.278 125.128C111.35 124.482 112.637 123.836 114.141 123.836C116.716 123.836 119.507 127.713 119.507 130.08C119.507 132.665 116.288 134.82 116.288 136.542C116.288 136.971 116.504 137.188 116.932 137.188C122.298 137.188 129.379 125.987 138.387 125.987C140.318 125.987 142.034 125.124 144.393 125.124C148.471 125.124 152.334 130.076 152.334 134.17C152.334 142.14 135.596 154.845 131.95 160.873C131.734 161.519 131.522 162.165 131.522 163.028C131.522 163.674 133.241 163.891 134.097 163.891C138.387 163.891 145.041 160.877 148.471 158.293C156.84 152.261 164.565 146.017 172.934 139.338C173.793 138.476 174.649 138.046 175.509 138.046C176.152 138.046 176.58 138.476 176.58 139.122C176.58 141.706 157.268 156.996 154.265 159.364H154.269Z" fill="white"/>
<path d="M359.599 56.8555C349.515 66.1137 342.006 74.7301 333.637 85.9266C327.843 93.8925 322.266 101.646 318.619 110.908C317.975 111.988 316.688 115.002 316.688 116.077C316.688 116.724 316.904 116.94 317.332 116.94C320.978 116.94 344.153 104.235 345.652 104.235C347.367 104.235 351.23 106.819 351.23 108.758C351.23 109.621 350.802 110.267 350.158 110.908C348.439 113.276 346.512 114.785 344.581 117.153C340.291 121.676 335.996 126.411 331.922 131.368C326.556 138.041 319.691 143.427 313.041 149.242C307.675 153.977 298.235 165.178 291.798 166.9C289.866 167.546 287.935 167.98 286.004 167.98C285.36 167.98 284.289 167.98 284.289 167.333C284.289 165.395 291.798 161.302 293.513 160.226C300.378 155.274 307.243 149.676 312.398 142.998C316.476 137.829 323.557 127.708 328.059 123.614C329.135 122.751 331.494 120.817 331.494 119.308C331.494 118.879 331.278 118.662 330.634 118.662C329.135 118.662 324.841 120.383 323.769 121.03C319.691 122.751 310.25 126.845 307.248 129.429C303.169 132.877 297.164 143.427 293.733 148.167C285.365 160.014 277.428 167.763 263.693 172.719C255.324 175.95 240.734 179.827 231.51 179.827C226.144 179.827 220.998 173.365 220.998 168.196C220.998 163.89 222.502 162.598 225.932 160.226C228.719 158.288 231.294 156.349 233.873 153.982C238.38 150.534 242.886 147.521 247.82 144.936C257.044 139.984 268.631 134.386 278.715 131.584C281.934 130.721 287.512 130.292 289.875 127.062C295.669 119.525 301.463 112.201 307.684 105.093C319.055 91.9585 330.427 76.0223 343.302 64.1754C345.661 61.8077 357.892 50.8236 361.539 50.8236C362.398 50.8236 362.826 51.2529 362.826 52.1159C362.826 53.8374 361.111 55.7758 359.607 56.8555H359.599ZM284.073 135.89H283.213C279.35 135.89 267.335 140.843 263.9 142.564C254.244 146.658 245.448 152.256 237.079 158.934C234.504 161.302 232.141 163.886 232.141 167.333C232.141 170.564 234.932 171.21 237.507 171.21C241.585 171.21 245.659 170.13 249.31 169.055C258.323 166.687 269.478 155.92 275.7 149.025C277.419 146.658 284.284 139.55 284.284 136.536L284.068 135.89H284.073ZM562.362 57.5017C562.362 71.4995 525.241 78.39 514.945 79.2529C511.51 79.4697 508.08 79.4697 504.645 79.4697C488.551 79.4697 472.246 78.8236 456.58 75.593C449.499 74.084 442.206 72.5792 435.125 70.6409C431.906 69.9948 429.331 68.9193 426.112 68.2732H424.825C423.537 68.2732 422.466 68.7025 421.39 69.5655C412.161 74.9512 405.296 79.4741 397.143 86.7939C391.566 91.9629 385.556 97.5611 381.05 103.589C380.622 104.235 379.978 104.668 379.335 104.668C378.475 104.668 378.047 104.239 378.047 103.159C378.047 99.2827 392.853 84.4219 395.856 81.4081C399.934 77.7482 404.225 74.3008 408.731 71.0702C411.09 69.5611 413.453 68.0564 415.812 66.3305C415.956 66.0443 416.028 65.829 416.028 65.6844C416.028 65.0383 414.097 64.1754 413.453 63.9585C383.197 51.2529 372.901 44.3624 338.999 44.3624C334.709 44.3624 330.202 44.5793 325.912 44.7917C324.836 44.7917 317.759 45.221 317.759 46.7301C317.759 47.3762 321.406 51.8991 321.406 57.931C321.406 59.8693 320.978 62.237 320.334 64.8215C316.472 77.5271 311.538 84.2051 300.806 92.3878C288.575 101.434 270.766 110.908 255.32 110.908C245.02 110.908 239.442 107.461 239.442 96.9107C239.442 86.3603 245.448 76.6684 252.957 69.9904C258.75 64.6046 265.404 58.7896 272.481 54.7004L276.771 52.1159C277.199 52.1159 281.061 49.1021 280.634 49.1021C278.275 49.1021 275.695 50.8236 273.125 50.8236C272.053 50.8236 271.409 50.3943 271.409 49.5314C271.409 43.4995 300.59 40.7025 305.096 40.7025C307.455 40.7025 309.175 41.1318 311.534 41.1318C313.037 41.1318 314.536 40.7025 316.04 40.4857C322.261 38.981 328.915 37.6888 335.568 37.6888C358.955 37.6888 377.408 41.5655 399.079 50.8236C402.726 52.1159 421.61 59.8693 424.397 59.8693C426.756 59.8693 429.763 57.931 431.694 56.8555C445.209 49.7482 460.015 43.9331 474.821 40.7025C489.411 37.4719 504.217 34.8875 519.024 34.8875C533.83 34.8875 561.291 37.6844 562.367 56.4219V57.4973L562.362 57.5017ZM302.093 48.2435C295.228 48.2435 284.068 54.0586 278.279 57.5017C271.198 62.0245 265.62 68.0521 259.826 74.3008C255.748 78.6068 254.46 83.7758 252.101 88.7279C251.458 90.6663 250.814 92.8215 250.814 94.7555C250.814 100.787 255.104 102.08 260.038 102.08C263.684 102.08 267.335 101.434 270.982 100.141C283.852 95.6184 290.506 93.6801 300.59 82.9128C306.6 76.6684 311.75 66.7598 311.75 57.5017C311.75 51.2573 307.887 48.2435 302.093 48.2435ZM517.52 39.8439C493.917 39.8439 456.584 47.8142 436.412 60.5154C435.768 61.1616 434.913 61.3784 434.913 62.237C434.913 63.3167 437.272 63.746 437.916 63.9585C460.659 70.2029 474.821 73.0042 498.424 73.0042C505.721 73.0042 513.014 72.7874 520.311 72.3581C530.179 71.712 552.067 68.0521 555.501 56.8512C555.717 55.9883 555.929 55.3421 555.929 54.9128C555.929 41.5611 525.889 39.8396 517.524 39.8396L517.52 39.8439Z" fill="white"/>
<path d="M374.612 159.15C369.462 162.81 363.668 167.55 357.447 169.918C355.088 170.993 352.513 172.073 349.722 172.073C344.356 172.073 338.35 165.828 338.35 160.443C338.35 151.831 352.513 144.506 352.513 142.568C352.513 140.847 351.225 139.121 349.51 139.121C345.431 139.121 334.92 151.826 329.77 151.826C329.126 151.826 328.054 151.609 328.054 150.747C328.054 150.1 337.711 142.781 338.998 141.488C342.433 138.475 349.298 131.797 351.657 128.137C354.016 124.689 354.232 116.936 359.81 116.936C361.741 116.936 365.604 119.733 365.604 122.105C365.604 125.552 360.881 128.137 360.881 131.15C360.881 136.103 368.179 133.735 368.179 139.121C368.179 139.984 367.751 140.63 366.891 141.059C364.316 143.21 355.731 152.902 355.092 156.132C354.664 157.425 354.448 158.5 354.448 159.58C354.448 161.947 355.52 163.027 357.451 163.027C364.96 163.027 387.275 144.723 393.713 139.338C394.788 138.475 395.644 138.045 396.287 138.045C397.147 138.045 397.575 138.475 397.575 139.121C397.575 141.922 378.051 156.778 374.616 159.15H374.612Z" fill="white"/>
<path d="M380.833 149.888C388.558 141.059 392.637 133.735 403.364 127.49C405.723 126.198 413.232 121.892 416.239 121.892C418.598 121.892 419.886 123.83 419.886 126.198C419.886 132.872 415.168 138.474 410.018 142.564C405.084 146.224 399.074 150.317 393.285 152.255C391.781 153.118 391.565 153.548 391.138 154.623C390.494 156.345 389.422 158.07 389.422 159.792C389.422 163.023 393.069 163.239 395.428 163.239C402.937 163.239 405.512 161.518 411.521 158.287C420.75 153.335 429.114 146.011 437.055 139.333C438.127 138.47 438.987 138.041 439.63 138.041C440.49 138.041 440.918 138.47 440.918 139.116C440.918 140.838 437.055 143.639 435.552 145.148C423.964 155.052 410.662 167.329 395 169.05C392.209 169.267 389.634 169.913 386.847 169.913C379.766 169.913 375.904 165.82 375.904 158.929C375.904 154.836 378.263 152.685 380.838 149.883L380.833 149.888ZM410.869 131.367H410.009C406.363 131.367 395.635 140.842 395.635 144.502C395.635 144.931 395.851 145.148 396.495 145.148C399.07 145.148 407.439 139.333 409.154 136.965C409.798 135.89 411.085 133.518 411.085 132.013C411.085 131.796 411.085 131.584 410.869 131.367Z" fill="white"/>
<path d="M424.601 149.888C432.326 141.059 436.404 133.735 447.132 127.49C449.491 126.198 457 121.892 460.007 121.892C462.366 121.892 463.653 123.83 463.653 126.198C463.653 132.872 458.935 138.474 453.785 142.564C448.851 146.224 442.842 150.317 437.052 152.255C435.549 153.118 435.333 153.548 434.905 154.623C434.261 156.345 433.19 158.07 433.19 159.792C433.19 163.023 436.836 163.239 439.195 163.239C446.704 163.239 449.279 161.518 455.289 158.287C464.517 153.335 472.882 146.011 480.823 139.333C481.894 138.47 482.754 138.041 483.398 138.041C484.258 138.041 484.685 138.47 484.685 139.116C484.685 140.838 480.823 143.639 479.324 145.148C467.736 155.052 454.433 167.329 438.772 169.05C435.981 169.267 433.406 169.913 430.619 169.913C423.538 169.913 419.675 165.82 419.675 158.929C419.675 154.836 422.034 152.685 424.609 149.883L424.601 149.888ZM454.641 131.367H453.781C450.135 131.367 439.407 140.842 439.407 144.502C439.407 144.931 439.623 145.148 440.267 145.148C442.842 145.148 451.21 139.333 452.926 136.965C453.569 135.89 454.857 133.518 454.857 132.013C454.857 131.796 454.857 131.584 454.641 131.367Z" fill="white"/>
<path d="M582.949 100.141C576.944 103.372 571.362 106.603 564.713 108.97C556.132 112.201 547.336 114.569 538.535 116.294C535.1 116.941 530.81 116.724 529.311 120.388C528.451 123.185 527.807 125.986 526.736 128.571C524.377 135.244 520.73 140.63 516.436 146.016C513.217 150.109 510.426 153.982 506.352 157.212C503.565 159.58 500.346 160.66 497.555 163.028C493.049 166.687 488.115 171.21 482.105 171.21C478.671 171.21 475.456 169.918 472.665 167.55C469.23 164.966 469.878 163.674 468.159 160.014C467.731 159.151 467.515 158.292 467.515 157.646C467.515 154.416 470.09 151.831 472.021 149.893C473.737 147.954 474.596 145.587 476.312 143.648C479.53 140.201 483.393 138.05 487.471 135.678C494.98 131.585 506.14 122.972 515.148 122.972C517.723 122.972 518.151 124.265 519.011 124.265C520.514 124.265 521.586 121.897 521.586 120.388C521.586 118.879 520.298 119.096 519.227 118.879H516.44C513.649 118.879 510.646 119.096 508.071 119.096H502.066C494.557 119.096 487.476 118.879 479.967 118.02C471.598 116.945 463.877 115.007 455.509 114.573C444.997 114.144 419.463 105.744 408.947 102.297C380.41 92.8216 336.208 75.1595 336.208 38.9811C336.208 28.86 340.714 19.5975 349.078 13.7868C361.094 5.81653 380.618 0.218262 395.424 0.218262C402.933 0.218262 410.014 1.72732 417.523 3.87816C433.617 8.61783 449.279 13.1407 463.869 20.8898C489.614 34.6708 522.23 55.3466 528.451 86.3561C530.166 94.7556 530.382 102.509 530.382 110.904C530.382 111.767 530.81 112.197 531.67 112.197C536.176 112.197 540.466 110.258 544.761 109.612C561.066 107.244 585.956 93.6759 595.613 80.541L598.831 76.4474C600.763 74.5091 602.478 73.6461 603.121 71.0617C604.193 65.8927 607.628 63.525 607.844 59.8608C608.488 56.6302 609.131 53.3996 609.131 50.169C609.131 49.3061 608.915 48.6643 608.704 47.8013C606.988 42.6324 610.207 38.3264 603.338 34.2328C596.256 29.9268 589.607 26.9087 581.022 26.9087C572.438 26.9087 555.061 29.0595 546.476 31.8608C539.827 33.7992 534.029 37.0298 527.807 39.8311C527.163 40.0479 526.731 40.2604 526.092 40.2604C525.232 40.2604 524.804 39.8311 524.804 39.185C524.804 35.9544 529.527 35.0914 531.886 34.016C537.679 31.219 543.046 28.4177 549.263 26.6918C561.494 23.4612 574.797 21.7397 587.672 21.7397C596.468 21.7397 611.702 22.6026 615.137 32.9406C615.996 36.1712 615.996 38.7557 617.496 41.557C618.139 42.8492 618.355 44.5707 618.355 46.5091C618.355 69.3358 602.905 89.7948 582.954 100.133L582.949 100.141ZM522.869 90.2371C519.65 73.0087 507.419 57.9355 493.689 47.8143C482.533 39.4148 469.658 29.0769 456.783 23.6954C448.842 20.248 440.905 16.1588 432.537 13.3575C423.74 10.1269 414.512 9.05146 405.288 7.5424C400.354 6.89628 395.847 6.03334 390.913 6.03334C382.333 6.03334 370.102 8.61783 362.377 12.707C351.433 18.5221 345.212 24.1204 345.212 36.826C345.212 39.1936 345.212 40.9195 345.428 43.2872C346.499 57.285 355.939 64.1755 365.384 72.5751C374.396 80.5453 397.351 90.8789 408.727 95.4018C421.602 100.571 437.907 105.952 451.638 108.537C471.594 112.197 491.118 114.135 511.718 114.135H514.505C521.154 114.135 524.372 113.706 524.372 104.231C524.372 99.7078 523.729 95.1849 522.873 90.2328L522.869 90.2371ZM512.141 130.938C502.485 130.938 484.248 149.676 484.248 159.797C484.248 160.443 484.248 162.381 485.108 162.381C490.47 162.381 502.917 151.397 506.564 148.384C509.566 145.37 515.576 139.121 515.576 134.603C515.576 132.664 514.5 130.943 512.141 130.943V130.938Z" fill="white"/>
<path d="M574.148 156.349C573.504 156.566 572.433 156.778 570.929 156.778C564.708 156.778 562.349 152.902 561.705 152.902C560.629 152.902 558.702 155.486 558.059 156.349C553.98 162.593 541.753 171.639 534.028 171.639C526.303 171.639 520.298 168.625 520.298 160.226C520.298 153.764 529.094 145.582 533.169 140.842C537.459 135.89 545.184 129.858 550.977 127.278C555.056 125.34 558.914 121.892 563.209 121.892C564.924 121.892 566.427 122.538 567.499 123.83C569.002 125.769 572.433 129.646 572.433 132.013C572.433 133.093 572.005 133.952 572.005 135.461C572.005 136.97 572.433 137.828 572.433 139.337C572.433 144.289 568.786 144.936 568.786 147.308C568.786 149.246 571.573 150.755 573.293 150.755C580.59 150.755 591.318 138.049 594.104 138.049C594.964 138.049 595.392 138.479 595.392 139.125C595.392 142.139 577.583 155.278 574.148 156.353V156.349ZM558.91 130.075C557.838 130.075 556.767 130.504 555.907 130.721C551.401 132.443 537.882 150.963 537.882 157.208C537.882 159.792 539.386 161.947 542.172 161.947C547.75 161.947 556.547 151.397 558.905 146.874C559.549 145.365 559.765 144.073 559.765 142.568C559.765 141.063 559.338 140.417 559.338 138.908C559.338 134.814 561.696 132.876 561.696 131.801C561.696 130.292 559.765 130.079 558.905 130.079L558.91 130.075Z" fill="white"/>
<path d="M687.652 158.717C683.146 162.164 680.787 164.315 674.993 165.824C671.558 166.9 665.553 169.272 662.118 169.272C659.331 169.272 653.965 164.532 653.965 161.518C653.965 158.717 658.472 151.397 660.831 149.671C663.406 147.733 674.133 136.536 674.133 133.735C674.133 132.66 673.49 132.013 671.986 132.013C667.48 132.013 656.108 139.121 653.317 142.997C649.239 147.52 632.933 166.041 628.859 168.409C627.356 169.055 626.712 169.701 625.213 169.701C622.638 169.701 618.348 166.9 618.348 164.103C618.348 163.24 618.775 162.594 619.419 162.164C623.498 158.071 627.36 155.057 630.791 150.751C634.225 146.445 637.872 140.63 640.447 135.461C641.09 134.598 641.523 133.735 641.523 133.093C641.523 132.451 640.663 132.447 640.019 132.447C638.515 132.447 636.8 132.876 635.085 133.522C629.075 136.107 623.07 139.767 617.92 143.86C613.414 147.308 594.961 168.625 591.742 169.055C591.098 169.272 590.027 169.272 588.739 169.272H587.88C586.164 169.272 583.157 169.055 583.157 167.121C583.157 160.23 607.404 141.063 607.404 134.173C607.404 133.527 606.976 133.31 606.332 133.31C601.826 133.31 586.376 149.029 584.017 149.029C583.373 149.029 582.941 148.383 582.941 147.308C582.941 146.232 584.445 145.157 585.3 144.511C592.382 138.696 599.463 133.098 606.328 127.282C608.259 125.773 611.694 124.481 614.269 124.481C615.984 124.481 622.21 125.773 622.21 128.141C622.21 129.646 619.851 133.093 618.991 135.032C618.775 135.248 618.775 135.461 618.775 135.678C618.775 135.894 618.991 136.107 619.203 136.107C620.707 136.107 638.299 123.185 644.737 123.185C647.312 123.185 652.674 126.632 652.674 129.216C652.674 131.584 651.386 134.385 650.531 136.107C650.315 136.753 650.103 136.97 650.103 137.187C650.103 137.404 650.319 137.616 650.531 137.616C650.742 137.616 650.958 137.399 651.602 137.187C655.037 134.819 664.689 125.557 679.067 125.557C684.001 125.557 686.365 127.924 686.365 132.881C686.365 141.28 675.205 149.892 669.415 155.278C668.772 155.924 667.7 156.787 667.7 157.863C667.7 159.801 670.703 160.664 672.206 160.664C682.934 160.664 704.39 138.05 708.036 138.05C708.68 138.05 709.108 138.479 709.108 139.125C709.108 141.926 690.011 156.354 687.652 158.721V158.717Z" fill="white"/>
<path d="M862.946 130.509C856.936 134.815 849.215 138.909 841.702 139.767C834.621 140.414 827.54 140.63 820.463 141.489C818.959 141.489 817.888 141.706 816.384 141.706C815.313 141.706 814.025 141.489 812.949 141.489C809.731 141.489 794.713 176.375 776.472 176.375C773.037 176.375 771.322 174.866 771.322 171.636C771.322 159.359 791.49 134.811 791.49 130.071C791.49 129.642 791.274 129.208 790.846 128.779C790.202 128.133 789.347 127.487 788.703 126.628C785.912 123.398 785.7 117.583 785.7 112.63V111.767C785.7 105.094 786.128 97.9865 790.206 92.6007L794.285 87.6485C797.932 82.4796 802.438 75.1554 808.231 71.9248C810.806 70.4158 814.025 68.4774 817.244 68.4774C819.603 68.4774 821.322 69.5528 821.322 71.9248C821.322 72.7878 821.106 73.6464 820.679 74.5093C820.035 76.4477 820.035 78.1692 820.035 80.1076C820.035 82.4752 820.035 84.8472 818.315 88.2903C815.097 94.1054 812.738 100.35 808.659 105.519C806.3 108.749 805.656 112.409 803.941 115.64C802.865 118.008 801.15 120.163 801.15 122.747C801.15 126.841 805.656 131.576 809.735 131.576C814.457 131.576 820.035 119.946 822.394 116.498C825.613 112.405 831.834 106.807 836.768 105.948C837.412 105.731 838.483 105.731 839.771 105.731C842.99 105.731 844.493 107.24 844.493 110.471C844.493 118.441 820.463 124.469 820.463 132.222C820.463 135.882 832.266 136.528 834.625 136.528C841.274 136.528 847.284 135.019 852.862 132.005C854.577 131.359 863.373 125.332 864.449 125.332C865.525 125.332 866.165 125.761 866.165 126.624C866.165 128.133 864.449 129.855 862.946 130.501V130.509ZM796.644 135.032C793.425 135.032 790.634 141.923 789.99 144.507C788.919 147.955 786.556 149.247 785.7 151.831C784.197 155.491 782.698 158.076 782.698 162.169C782.698 164.108 783.341 166.692 785.7 166.692C785.916 166.692 786.56 166.475 787.415 166.263C790.634 164.754 792.138 162.603 794.065 159.802C796.424 156.571 798.143 153.34 800.718 150.539C801.79 148.817 806.512 143.002 806.512 140.635C806.512 139.343 798.359 135.036 796.644 135.036V135.032ZM810.806 85.7145C810.806 83.3469 810.806 80.1163 808.447 80.1163C803.297 80.1163 799.651 88.299 797.936 91.7464C796.221 96.0524 795.361 101.438 795.361 106.39C795.361 108.112 795.789 115.219 798.148 115.219C800.722 115.219 808.659 98.8494 809.307 96.0524C809.523 95.1895 809.735 94.5434 809.735 93.6848C809.735 93.0387 809.519 92.3925 809.519 91.5296C809.519 89.8081 810.806 88.7326 810.806 86.7943V85.7145Z" fill="white"/>
<path d="M1028.58 77.7438C1025.58 81.4037 1020.86 88.511 1015.71 88.511C1013.78 88.511 1011.85 87.6481 1010.34 86.5727C1004.34 82.9128 999.615 77.0977 999.615 69.5611C999.615 67.8395 999.831 62.8874 1002.41 62.8874C1004.12 62.8874 1006.05 65.255 1006.05 66.9809C1006.05 67.8439 1005.19 69.1361 1005.19 70.6408C1005.19 74.3007 1010.99 82.271 1015.06 82.271C1015.49 82.271 1016.14 82.0542 1016.99 81.8417C1021.28 80.1201 1026.86 70.6452 1028.58 66.5516C1031.15 59.015 1033.73 52.5538 1033.73 44.5835C1033.73 40.2775 1031.37 38.9853 1027.29 38.9853C1017.64 38.9853 1003.48 46.7387 995.753 52.1202C984.809 60.0904 978.376 66.9809 971.294 78.1774C968.935 81.6249 966.36 87.8693 966.36 91.9585C966.36 92.8214 966.36 94.3261 967.864 94.3261C968.935 94.3261 971.299 91.5248 976.233 91.5248C978.808 91.5248 981.599 91.308 984.174 91.308C988.252 91.308 992.759 92.8171 992.759 97.7692C992.759 105.952 980.527 111.55 973.662 111.55C971.947 111.55 970.227 111.333 968.512 111.333C966.153 111.333 964.65 111.55 963.146 113.272C956.925 121.242 936.968 150.313 936.968 159.359C936.968 164.957 942.546 165.603 947.052 165.603C957.996 165.603 968.292 158.067 976.233 151.389C978.164 149.667 980.523 148.804 982.454 147.295C986.101 144.711 989.103 141.914 992.538 139.325C993.398 138.462 994.258 138.032 995.113 138.032C995.757 138.032 996.185 138.462 996.185 139.108C996.185 141.692 979.235 154.832 976.444 157.199C969.579 163.444 959.279 171.414 950.051 173.782C946.832 174.645 943.186 174.857 939.751 174.857C936.104 174.857 932.67 174.211 928.591 174.211C923.441 174.211 919.579 166.457 918.935 162.151C918.935 161.072 918.719 160.213 918.719 159.138C918.719 153.323 922.797 148.37 926.016 144.06C931.382 136.523 936.528 129.633 942.321 122.092C945.54 117.998 948.759 113.046 952.833 109.603C953.693 108.957 956.268 107.019 956.268 105.51C956.268 104.43 953.265 101.633 953.265 97.1101C953.265 93.8795 954.125 91.0825 954.98 88.498C958.843 77.2972 963.993 72.345 971.502 63.733C980.087 53.6119 989.955 44.1369 1002.61 39.1847C1009.26 36.6003 1019.56 31.2145 1026.43 31.2145C1034.8 31.2145 1040.8 36.6003 1040.8 44.9955C1040.8 54.2537 1034.15 70.4067 1028.57 77.7308L1028.58 77.7438ZM978.164 99.2826C976.66 99.2826 971.726 100.146 971.726 102.513C971.726 104.022 976.017 104.235 977.088 104.235H977.948C979.452 104.235 981.594 104.018 981.594 102.08C981.594 100.141 979.879 99.2826 978.16 99.2826H978.164Z" fill="white"/>
<path d="M1042.1 160.009C1035.45 165.824 1029.87 172.498 1023.64 179.176L1014.2 188.863C1011.42 192.094 1009.48 195.754 1006.05 198.338C1000.26 203.078 1000.9 204.583 997.255 210.615L991.25 221.165C988.891 225.259 985.884 229.135 981.809 231.503C979.451 232.579 977.087 233.658 974.728 233.658C973.225 233.658 971.293 233.012 971.293 231.291C971.293 229.998 976.016 223.966 977.087 221.17C977.947 219.231 978.591 217.293 979.446 214.925C983.525 203.078 990.39 192.745 996.611 182.407C998.327 179.605 1004.55 171.206 1004.55 168.192C1004.55 167.329 1004.34 166.9 1003.69 166.9C1003.05 166.9 1002.19 167.117 1001.33 167.763C998.547 169.489 991.894 170.776 988.675 170.776C986.96 170.776 985.24 170.776 983.741 170.13C981.382 169.055 977.519 165.824 977.519 163.24C977.519 161.301 981.382 154.623 982.669 152.902C993.613 134.811 999.407 132.23 1017.86 122.968C1020.21 122.105 1021.72 119.954 1024.29 119.954C1025.37 119.954 1031.37 121.892 1032.02 122.968C1032.45 123.397 1032.66 124.048 1032.66 125.123C1032.66 126.845 1032.66 127.061 1032.88 127.061C1033.74 127.061 1035.02 124.048 1038.46 124.048C1039.53 124.048 1042.96 124.048 1042.96 125.986C1042.96 129 1035.02 137.616 1032.88 140.413C1031.16 142.998 1030.95 146.228 1029.23 148.813C1027.3 151.397 1024.72 153.336 1023.22 156.566C1021.51 161.518 1014.64 169.489 1011.85 174.658C1009.92 177.888 1007.77 180.473 1006.27 183.703C1005.2 185.642 1004.77 187.797 1003.27 189.735C1002.63 190.381 1002.2 191.457 1002.2 192.103C1002.2 192.32 1002.41 192.532 1002.63 192.532C1004.34 192.532 1008.42 188.226 1009.92 186.717C1012.71 184.349 1014.86 181.977 1017.22 179.393C1022.8 173.148 1031.59 163.027 1038.03 157.858C1043.4 153.552 1049.19 149.676 1054.55 145.153C1056.27 144.073 1062.71 138.045 1064.42 138.045C1065.28 138.045 1065.71 138.475 1065.71 139.121C1065.71 141.705 1045.32 157.858 1042.11 160.009H1042.1ZM1025.15 128.354C1022.79 128.354 1017.21 128.783 1016.35 130.721C1015.71 131.797 1011.42 134.598 1010.34 136.103C1005.41 141.272 1000.47 145.795 997.683 152.039C997.039 153.114 997.467 154.407 996.823 155.486C996.179 156.566 995.963 157.642 995.963 158.288C995.963 159.797 996.607 161.085 998.111 161.085C1005.19 161.085 1010.34 157.425 1014.85 152.256C1019.35 147.304 1022.79 142.135 1025.58 136.536C1026.22 134.815 1027.93 131.797 1027.93 130.075C1027.93 128.566 1026.65 128.354 1025.14 128.354H1025.15Z" fill="white"/>
<path d="M1099.81 167.55C1096.6 169.059 1088.87 169.706 1085.22 169.706C1082.86 169.706 1080.29 169.059 1080.29 166.258C1080.29 165.178 1080.71 162.811 1080.71 162.598C1080.71 161.735 1080.71 160.66 1079.64 160.66C1077.71 160.66 1069.77 164.753 1068.27 166.258C1064.62 168.626 1057.97 170.352 1053.68 170.352C1047.67 170.352 1044.02 167.338 1044.02 161.089C1044.02 153.982 1051.11 146.228 1056.89 142.785C1059.47 141.064 1061.62 139.771 1063.98 137.399C1069.34 132.014 1068.91 130.292 1075.99 126.199C1077.06 125.336 1078.35 124.906 1079.85 124.906C1082.21 124.906 1083.5 127.057 1083.5 129.429C1083.5 131.368 1082.86 132.877 1081.57 134.169C1080.07 135.678 1078.35 137.183 1076.63 138.475C1072.13 142.568 1057.54 155.92 1057.54 162.165C1057.54 163.669 1058.4 164.532 1060.11 164.532C1067.41 164.532 1077.71 156.133 1083.29 151.827C1086.93 148.596 1088.65 145.582 1091.44 142.135C1092.08 141.272 1092.52 140.626 1093.16 140.413C1096.59 138.046 1099.59 135.244 1101.95 132.014C1104.31 128.783 1106.67 124.477 1110.75 124.477C1111.82 124.477 1112.25 124.26 1112.46 124.26C1114.18 124.26 1116.75 124.69 1116.75 127.057C1116.75 133.948 1105.38 139.334 1102.16 144.502C1099.16 149.455 1096.37 155.27 1094.44 160.655C1094.44 161.302 1094.22 161.085 1094.22 161.731C1094.22 162.594 1094.87 163.023 1095.94 163.023C1104.09 163.023 1131.12 137.612 1134.13 137.612C1134.78 137.612 1135.2 137.829 1135.2 138.475C1135.2 142.781 1104.09 164.966 1099.8 167.546L1099.81 167.55Z" fill="white"/>
<path d="M1192.08 141.922C1187.57 146.445 1164.61 165.824 1159.04 167.55C1156.68 168.196 1154.75 169.059 1152.39 169.059C1145.95 169.059 1146.59 162.385 1144.23 162.385C1141.87 162.385 1138.87 164.97 1136.51 166.479C1132.86 169.276 1131.79 169.493 1128.14 169.493H1126.42C1122.78 169.493 1116.56 169.063 1116.56 164.107C1116.56 159.801 1116.77 155.278 1119.56 151.831C1121.28 149.892 1122.56 147.525 1124.49 145.799C1129.43 141.493 1133.29 136.541 1139.08 133.093C1143.37 130.079 1153.89 123.185 1159.04 123.185C1166.77 123.185 1163.97 129.646 1167.41 129.646C1170.63 129.646 1170.63 125.552 1175.13 125.552C1176.64 125.552 1178.57 125.982 1178.57 127.92C1178.57 132.013 1158.18 150.963 1158.18 157.208C1158.18 158.288 1158.61 160.222 1160.12 160.222C1167.62 160.222 1189.73 138.041 1192.94 138.041C1193.59 138.041 1194.01 138.47 1194.01 139.116C1194.01 140.192 1192.94 141.272 1192.08 141.918L1192.08 141.922ZM1158.18 129.216C1149.38 129.216 1131.78 146.874 1131.78 156.349C1131.78 158.717 1132.86 160.009 1135.22 160.009C1139.51 160.009 1148.95 152.902 1151.74 149.459C1153.89 146.011 1160.75 136.107 1160.75 132.013C1160.75 130.075 1159.89 129.216 1158.18 129.216Z" fill="white"/>
<path d="M1275.76 62.4587C1270.39 69.9953 1266.74 78.1781 1261.17 85.5022C1253.87 95.4065 1246.14 103.594 1236.92 111.56C1231.99 115.653 1227.91 118.884 1222.11 122.973C1219.75 124.482 1216.96 127.066 1214.6 128.788C1209.88 132.881 1202.8 146.016 1199.37 151.831C1198.51 153.341 1197.01 155.708 1197.01 157.43C1197.01 159.797 1199.59 160.877 1201.3 160.877C1203.23 160.877 1204.95 160.448 1206.67 159.802C1211.17 158.293 1216.97 155.708 1220.61 153.124C1226.62 148.601 1232.42 143.866 1238.21 139.343C1239.28 138.48 1240.14 138.05 1240.78 138.05C1241.64 138.05 1242.07 138.48 1242.07 139.126C1242.07 140.847 1238.21 143.649 1236.7 145.158L1227.48 153.124C1220.83 158.722 1201.09 171.215 1192.51 171.215C1188.64 171.215 1182.42 166.692 1182.42 162.386C1182.42 158.726 1189.07 150.327 1189.07 146.662C1189.07 146.016 1188.85 145.8 1188.43 145.8C1186.07 145.8 1182.42 150.539 1179.85 150.539C1179.2 150.539 1177.49 150.322 1177.49 149.464C1177.49 148.818 1179.2 147.955 1179.85 147.309C1184.78 143.861 1188.64 139.555 1193.15 135.895C1197.23 132.448 1200.87 129.222 1204.09 124.911C1211.6 114.361 1218.26 103.806 1224.9 93.2557C1231.55 82.9177 1238.85 73.872 1246.58 64.3971C1251.3 58.582 1256.23 53.413 1261.17 47.5979C1263.1 45.0134 1267.82 40.4906 1271.47 40.4906C1274.68 40.4906 1279.41 45.0134 1280.05 48.244C1280.27 48.6733 1280.27 49.3195 1280.27 50.1824C1280.27 54.4884 1278.76 58.582 1275.76 62.4587H1275.76ZM1268.89 55.5638C1255.16 59.0113 1244 78.6074 1236.49 89.5914C1233.27 94.5436 1229.19 98.4203 1226.4 103.372C1225.33 105.528 1218.89 115.861 1218.89 117.153C1218.89 117.37 1219.11 117.583 1219.32 117.583C1221.47 116.937 1228.12 111.984 1229.62 110.475C1231.55 108.966 1233.7 107.462 1235.42 105.953C1239.71 102.293 1243.35 98.8452 1246.79 94.7517C1251.29 89.1534 1270.82 64.6009 1270.82 57.4935C1270.82 56.4181 1270.6 55.5552 1268.89 55.5552V55.5638Z" fill="white"/>
<path d="M1257.08 158.287C1252.15 161.947 1246.57 166.687 1240.77 169.055C1237.99 170.13 1234.55 171.422 1231.33 171.422C1227.69 171.422 1223.82 167.762 1223.82 164.098C1223.82 162.377 1224.68 160.651 1225.54 159.146C1227.48 155.915 1229.41 152.685 1231.77 149.454C1233.7 146.224 1234.77 142.993 1237.56 140.625C1241.64 137.178 1249.36 122.534 1254.08 122.534C1256.44 122.534 1258.8 124.256 1258.8 126.84C1258.8 128.778 1257.73 130.071 1256.66 131.58C1252.58 136.319 1240.35 152.897 1240.35 158.5C1240.35 160.438 1242.28 160.438 1243.78 160.438C1248.93 160.438 1269.1 143.643 1274.47 139.333C1275.33 138.47 1276.18 138.041 1277.04 138.041C1277.69 138.041 1278.12 138.47 1278.12 139.116C1278.12 141.484 1259.88 155.915 1257.09 158.283L1257.08 158.287ZM1292.06 73.0082C1289.27 73.0082 1287.98 71.0698 1287.98 68.4853C1287.98 65.2547 1289.27 64.1793 1290.77 61.5948C1292.27 59.0104 1293.12 56.4259 1296.56 56.2134C1297.2 56.2134 1297.42 55.9966 1298.06 55.9966C1300.42 55.9966 1304.71 56.2134 1304.71 59.444C1304.71 64.613 1298.27 73.0125 1292.05 73.0125L1292.06 73.0082Z" fill="white"/>
<path d="M1406.42 102.296H1391.19C1388.18 102.296 1384.96 102.296 1381.96 102.726C1379.6 102.726 1377.24 102.943 1374.66 102.943C1372.95 102.943 1371.23 102.513 1369.51 102.296C1367.8 101.867 1366.29 101.867 1364.58 101.867H1354.71C1346.34 101.867 1337.97 103.159 1329.61 103.159C1327.25 103.159 1325.1 102.943 1322.74 102.943C1320.38 102.943 1317.81 102.943 1316.09 104.881C1310.73 111.555 1304.93 118.233 1300.43 125.769C1297.64 130.721 1293.56 134.381 1291.2 139.55C1290.34 141.918 1289.27 143.856 1288.42 146.224C1286.7 150.53 1281.55 153.977 1281.55 158.93C1281.55 161.297 1282.62 162.806 1284.99 162.806C1295.93 162.806 1321.25 138.041 1324.47 138.041C1325.11 138.041 1325.54 138.471 1325.54 139.117C1325.54 140.838 1321.68 143.64 1320.18 145.149C1313.09 151.393 1306.01 157.854 1297.64 163.023C1294.86 164.745 1291.64 165.82 1288.85 167.546C1285.63 169.484 1281.98 169.055 1278.76 170.56C1278.12 170.56 1277.9 170.777 1277.26 170.777C1272.97 170.777 1267.18 167.117 1267.18 162.165C1267.18 157.642 1276.19 145.795 1276.19 144.719C1275.97 144.502 1275.76 144.502 1275.33 144.502C1273.19 144.502 1267.18 151.176 1264.17 151.176C1263.53 151.176 1262.03 150.959 1262.03 150.313C1262.03 149.45 1263.74 148.592 1264.39 147.946C1268.46 144.715 1271.89 141.272 1275.97 137.824C1277.9 136.315 1279.41 134.594 1281.34 133.085C1287.34 128.345 1298.08 113.918 1302.58 107.674C1303.22 106.811 1304.08 105.306 1304.08 104.443C1304.08 103.797 1303.65 103.368 1302.58 103.368C1300.22 103.151 1297.86 102.292 1295.5 102.292C1292.71 102.292 1290.14 103.155 1287.34 103.155C1284.99 103.155 1283.27 102.938 1280.91 102.938H1273.83C1271.03 102.938 1262.88 102.938 1261.59 102.292C1260.73 101.863 1260.31 101.212 1260.31 100.354C1260.31 99.2784 1260.95 98.4154 1262.24 98.2029C1264.6 97.7737 1266.96 97.5568 1269.54 97.5568C1272.33 97.5568 1275.11 97.7736 1277.9 97.7736C1282.41 97.7736 1286.7 96.9107 1291.63 96.9107C1295.28 96.9107 1298.93 97.1275 1303.01 97.1275C1305.36 97.1275 1308.16 97.1275 1309.87 95.6185C1313.09 93.4676 1318.67 85.931 1320.38 82.0543C1323.6 75.3806 1328.32 69.778 1333.26 64.3965C1336.05 61.1659 1339.7 54.4923 1343.99 54.0586C1344.63 53.8418 1345.7 53.8418 1347.2 53.8418C1348.7 53.8418 1350.64 54.0586 1350.64 55.997C1350.64 58.5815 1344.63 67.8396 1342.27 69.5612C1338.62 72.7918 1336.05 76.0224 1333.47 80.1116C1330.69 84.2051 1327.68 87.6482 1324.46 91.3124C1323.82 91.9586 1323.39 92.8215 1323.39 93.4676C1323.39 95.8353 1327.25 96.4814 1328.97 96.6982C1339.05 97.5612 1348.28 97.1275 1358.36 97.7736H1360.08C1367.59 97.7736 1374.03 96.9107 1381.53 96.6982H1384.32C1389.47 96.6982 1394.41 97.7736 1399.56 97.7736C1402.77 97.7736 1405.56 97.3443 1408.35 97.3443C1409.86 97.3443 1411.14 97.3443 1411.14 99.0659C1411.14 101.434 1408.78 102.296 1406.42 102.296Z" fill="white"/>
<path d="M1406.63 145.153C1393.11 156.996 1380.67 166.688 1364.36 174.224C1361.57 175.304 1349.55 181.115 1347.84 182.841C1345.48 185.642 1343.76 189.302 1342.05 192.533L1334.54 205.884C1329.6 214.284 1315.65 237.111 1308.79 242.926C1302.56 248.095 1289.47 257.786 1280.89 257.786C1276.81 257.786 1273.6 255.419 1273.6 251.113C1273.6 247.882 1275.31 244.651 1277.03 242.067C1281.96 235.177 1287.54 228.932 1292.05 221.825C1294.41 218.377 1301.92 211.487 1305.36 209.119C1311.58 205.026 1315.87 198.135 1322.52 194.046C1332.61 188.014 1341.4 180.048 1346.34 169.498L1349.55 163.899C1349.98 163.47 1350.2 162.82 1350.2 161.961C1350.2 161.744 1349.98 161.532 1349.77 161.532C1349.13 161.532 1347.84 161.961 1346.77 162.607C1342.48 164.116 1338.18 167.776 1332.39 167.776C1327.03 167.776 1321.67 164.329 1321.67 158.518C1321.67 145.166 1342.26 135.691 1342.26 129.876C1342.26 129.013 1342.05 128.584 1341.4 128.584C1339.69 128.584 1337.97 130.306 1336.9 131.385C1334.54 133.107 1332.18 133.97 1330.67 136.337C1328.31 139.568 1324.02 141.077 1321.45 143.874C1320.59 144.737 1315.22 149.689 1313.94 149.689C1312.86 149.689 1312.43 148.614 1312.43 147.751C1312.43 146.671 1312.86 145.812 1313.94 145.166C1316.72 142.799 1319.51 141.073 1321.88 138.488C1325.96 134.395 1339.04 121.693 1344.19 119.968C1345.91 119.321 1348.05 118.463 1349.99 118.463C1352.99 118.463 1357.07 124.49 1357.07 127.509C1357.07 135.479 1344.41 143.874 1339.04 149.26C1337.33 150.981 1335.4 154.429 1335.4 157.013C1335.4 158.952 1336.26 159.815 1337.97 159.815C1340.33 159.815 1343.33 158.093 1345.27 157.013C1352.99 152.49 1357.28 149.906 1363.29 143.015C1366.51 139.356 1369.94 135.908 1372.73 131.815C1374.66 128.584 1377.67 124.49 1380.89 122.556C1382.82 121.047 1387.75 120.835 1390.11 120.835C1391.61 120.835 1391.61 122.773 1391.61 123.849C1391.61 128.372 1384.96 135.262 1381.53 138.063C1377.45 142.157 1375.09 143.878 1370.8 148.831C1368.44 151.844 1355.35 167.997 1355.35 171.445C1355.35 171.662 1355.57 171.874 1355.78 171.874C1357.5 171.874 1365.44 167.781 1367.37 166.705C1383.89 159.168 1390.33 153.57 1404.06 142.803C1405.56 141.294 1408.99 138.063 1410.71 138.063C1411.57 138.063 1411.99 138.493 1411.99 139.139C1411.99 140.86 1408.13 143.662 1406.63 145.171V145.153ZM1331.32 194.683C1331.11 194.683 1330.46 194.9 1329.6 195.546C1325.74 198.343 1317.16 205.451 1315.66 206.96C1312.01 211.053 1307.71 214.067 1303.42 217.298C1299.13 219.882 1293.98 228.494 1291.62 232.588C1289.91 235.389 1284.32 243.355 1284.32 245.727C1284.32 246.59 1284.75 247.019 1285.61 247.019C1289.05 247.019 1302.35 236.252 1305.35 233.238C1312.86 226.348 1321.23 212.996 1326.81 203.95L1330.24 198.352C1330.89 197.489 1331.32 196.63 1331.53 195.984C1331.75 195.768 1331.75 195.338 1331.75 195.121C1331.75 194.905 1331.53 194.692 1331.32 194.692L1331.32 194.683Z" fill="white"/>
</g>
<defs>
<clipPath id="clip0_1_147">
<rect width="1412" height="257.564" fill="white" transform="translate(0 0.21875)"/>
</clipPath>
</defs>
</svg>
