<svg width="431" height="227" viewBox="0 0 431 227" fill="none" xmlns="http://www.w3.org/2000/svg">
<g clip-path="url(#clip0_1_175)">
<path d="M24.9753 28.7998L35.4745 51.6861L29.6987 27.1563L39.4025 23.7589L49.4734 72.7571L38.8641 76.4611L27.4104 53.5503L33.1006 78.4726L22.4913 82.1766L0 37.5201L11.7106 33.4236L22.5035 56.126L16.4952 31.7434L24.9753 28.7875V28.7998Z" fill="#F4F7F9"/>
<path d="M48.519 21.5635L72.5277 15.6028L74.767 24.6665L63.1298 27.5611L65.6383 37.6918L73.7513 35.6804L75.9907 44.7442L67.8777 46.7556L70.5453 57.5487L82.5863 54.5561L84.8256 63.6198L60.4132 69.6787L48.519 21.5513V21.5635Z" fill="#F4F7F9"/>
<path d="M95.5083 10.9912L121.646 6.88245L123.09 16.1056L116.323 17.1727L122.539 56.9355L109.948 58.9101L103.731 19.1473L96.9645 20.2144L95.5205 10.9912H95.5083Z" fill="#F4F7F9"/>
<path d="M130.457 5.71725L143.146 4.46623L145.067 24.1514L149.84 23.6853L147.918 4.00016L160.608 2.74915L165.429 52.1031L152.74 53.3541L150.745 32.9821L145.973 33.4482L147.967 53.8201L135.278 55.0712L130.457 5.71725Z" fill="#F4F7F9"/>
<path d="M170.288 2.16042L194.994 1.05658L195.41 10.3902L183.43 10.9298L183.895 21.355L192.24 20.9748L192.657 30.3083L184.311 30.6886L184.813 41.8005L197.196 41.2486L197.612 50.5822L172.49 51.7106L170.275 2.17268L170.288 2.16042Z" fill="#F4F7F9"/>
<path d="M230.701 31.6329L230.223 50.6558L217.485 50.3369L218.733 0.762207L233.393 1.13015C243.256 1.37545 249.496 6.69841 249.239 16.7188C248.982 26.7392 242.485 31.9396 232.61 31.682L230.688 31.6329H230.701ZM231.239 10.4147L230.933 22.2994L232.169 22.3361C234.837 22.4097 236.403 20.3124 236.501 16.4735C236.599 12.6224 235.143 10.5251 232.475 10.4637L231.239 10.4269V10.4147Z" fill="#F4F7F9"/>
<path d="M257.989 2.06232L282.658 3.96337L281.948 13.2724L269.993 12.3526L269.198 22.7655L277.531 23.4032L276.821 32.7123L268.488 32.0745L267.643 43.162L280.015 44.1186L279.305 53.4277L254.232 51.5021L258.025 2.06232H257.989Z" fill="#F4F7F9"/>
<path d="M298.982 56.5184C287.638 55.0344 284.065 44.2413 286.035 29.1187C288.005 13.996 294.222 4.49076 305.577 5.98707C316.933 7.48339 320.494 18.2642 318.524 33.3868C316.554 48.5094 310.338 58.0147 298.982 56.5184ZM300.254 46.8414C302.298 47.1113 303.485 44.8422 305.027 33.0557L305.406 30.198C306.948 18.4114 306.373 15.9216 304.329 15.6518C302.286 15.382 301.099 17.651 299.557 29.4375L299.178 32.2953C297.636 44.0818 298.211 46.5716 300.254 46.8414Z" fill="#F4F7F9"/>
<path d="M337.516 42.8186L333.808 61.4734L321.314 58.9714L330.993 10.3411L345.372 13.2111C355.051 15.149 360.288 21.4408 358.33 31.2773C356.372 41.1137 349.079 45.1121 339.4 43.1742L337.516 42.794V42.8186ZM341.664 22.005L339.339 33.6567L340.55 33.902C343.169 34.4294 345.066 32.6387 345.812 28.8611C346.559 25.0835 345.482 22.7777 342.863 22.2503L341.652 22.005H341.664Z" fill="#F4F7F9"/>
<path d="M382.363 21.9805L371.815 60.8112L381.605 63.4849L379.157 72.4996L357.07 66.4775L370.065 18.6322L382.363 21.9928V21.9805Z" fill="#F4F7F9"/>
<path d="M401.319 27.4874L424.618 35.803L421.497 44.5969L410.203 40.5618L406.715 50.3982L414.596 53.2069L411.475 62.0008L403.595 59.1922L399.875 69.6786L411.561 73.8487L408.44 82.6426L384.75 74.1921L401.343 27.4752L401.319 27.4874Z" fill="#F4F7F9"/>
<path d="M89.6957 99.372H95.7652V101.886H85.4006V99.789C91.47 93.9386 92.1553 93.4112 92.1553 92.0498C92.1553 90.8969 91.47 90.2101 90.2953 90.2101C89.0472 90.2101 88.1049 91.2281 87.3952 92.3687L85.1191 91.0564C86.1715 89.0327 88.0804 87.4873 90.54 87.4873C93.5992 87.4873 95.4225 89.278 95.4225 91.8291C95.4225 94.1594 93.9174 95.3 89.6835 99.3842L89.6957 99.372Z" fill="#F4F7F9"/>
<path d="M105.518 102.119C102.997 102.119 101.052 100.819 100.109 99.3352L102.202 97.5445C103.009 98.7219 104.062 99.6295 105.432 99.6295C106.876 99.6295 108.002 98.7465 108.002 97.2379C108.002 95.7293 107.084 94.9566 105.689 94.9566C104.784 94.9566 104.16 95.3123 103.609 95.8397L101.296 94.9811L101.945 87.7203H110.327V90.4677H104.27L104.05 93.3131C104.613 92.9206 105.42 92.6018 106.57 92.6018C109.079 92.6018 111.074 94.3434 111.074 97.1398C111.074 100.378 108.247 102.132 105.494 102.132L105.518 102.119Z" fill="#F4F7F9"/>
<path d="M121.817 102.119C118.366 102.119 116.078 99.2126 116.078 94.7972C116.078 90.3819 118.366 87.4751 121.817 87.4751C125.268 87.4751 127.556 90.3573 127.556 94.7972C127.556 99.2371 125.28 102.119 121.817 102.119ZM121.817 89.9526C120.275 89.9526 119.566 91.3508 119.566 94.2576V95.3614C119.566 98.2682 120.275 99.6664 121.817 99.6664C123.359 99.6664 124.069 98.2682 124.069 95.3614V94.2576C124.069 91.3508 123.359 89.9526 121.817 89.9526Z" fill="#F4F7F9"/>
<path d="M132.524 87.7203H143.611V90.112H139.671V101.886H136.452V90.112H132.512V87.7203H132.524Z" fill="#F4F7F9"/>
<path d="M149.167 87.7203H152.385V93.3499H157.267V87.7203H160.473V101.899H157.267V95.7784H152.385V101.899H149.167V87.7203Z" fill="#F4F7F9"/>
<path d="M177.605 87.7203H181.349L185.779 101.899H182.549L181.472 98.3785H176.944L175.867 101.899H173.188L177.617 87.7203H177.605ZM180.774 96.1218L179.208 90.9583L177.617 96.1218H180.774Z" fill="#F4F7F9"/>
<path d="M193.672 92.0744V101.886H191.041V87.7081H194.247L199.399 96.0115V87.7081H202.005V101.886H199.852L193.66 92.0744H193.672Z" fill="#F4F7F9"/>
<path d="M211.085 92.0744V101.886H208.466V87.7081H211.672L216.824 96.0115V87.7081H219.43V101.886H217.277L211.085 92.0744Z" fill="#F4F7F9"/>
<path d="M225.867 87.7203H229.073V101.899H225.867V87.7203Z" fill="#F4F7F9"/>
<path d="M234.384 87.7203H237.675L240.771 98.3785L243.892 87.7203H246.67L242.277 101.899H238.777L234.384 87.7203Z" fill="#F4F7F9"/>
<path d="M251.943 87.7204H261.5V90.112H255.113V93.35H259.31V95.7662H255.113V99.4947H261.733V101.886H251.943V87.7081V87.7204Z" fill="#F4F7F9"/>
<path d="M270.543 101.886H267.337V87.7081H273.59C276.65 87.7081 278.669 89.0573 278.669 91.731C278.669 93.7302 277.176 95.0057 275.866 95.4473L278.742 101.886H275.255L272.685 95.8765H270.556V101.886H270.543ZM270.543 90.0875V93.5953H273.125C274.533 93.5953 275.279 92.9452 275.279 91.8291C275.279 90.713 274.533 90.0875 273.125 90.0875H270.543Z" fill="#F4F7F9"/>
<path d="M283.184 99.1022L285.277 97.4709C286.158 98.9059 287.565 99.8013 289.119 99.8013C290.489 99.8013 291.432 99.0776 291.432 97.9738C291.432 95.1896 283.955 97.0171 283.955 91.9027C283.955 89.2167 286.341 87.4628 289.18 87.4628C291.701 87.4628 293.39 88.6157 294.356 90.2101L292.227 91.6574C291.505 90.4799 290.428 89.7563 289.156 89.7563C287.883 89.7563 287.063 90.4186 287.063 91.4489C287.063 94.0981 294.601 92.3565 294.601 97.4587C294.601 100.304 292.019 102.107 289.058 102.107C286.451 102.107 284.322 100.954 283.196 99.0899L283.184 99.1022Z" fill="#F4F7F9"/>
<path d="M303.216 87.7203H306.96L311.39 101.899H308.16L307.083 98.3785H302.555L301.478 101.899H298.798L303.228 87.7203H303.216ZM306.397 96.1218L304.831 90.9583L303.24 96.1218H306.397Z" fill="#F4F7F9"/>
<path d="M319.882 101.886H316.676V87.7081H322.929C325.988 87.7081 328.008 89.0573 328.008 91.731C328.008 93.7302 326.515 95.0057 325.205 95.4473L328.081 101.886H324.593L322.024 95.8765H319.895V101.886H319.882ZM319.882 90.0875V93.5953H322.464C323.871 93.5953 324.618 92.9452 324.618 91.8291C324.618 90.713 323.871 90.0875 322.464 90.0875H319.882Z" fill="#F4F7F9"/>
<path d="M338.837 93.2273L342.043 87.7081H344.882L340.098 95.8152V101.886H336.892V95.8152L332.095 87.7081H335.643L338.837 93.2273Z" fill="#F4F7F9"/>
<path d="M7.25647 165.161V162.548H9.69159V152.835H7.20752V150.345L8.16199 150.32C9.60593 150.32 10.487 149.805 10.8296 148.248H13.1791V162.548H15.4551V165.161H7.24423H7.25647Z" fill="#F4F7F9"/>
<path d="M16.4219 148.333H26.2725V151.13C23.6661 155.423 22.9686 159.519 22.9441 165.161H19.1997C19.3587 159.409 20.7048 155.374 23.0298 151.338H16.4097V148.333H16.4219Z" fill="#F4F7F9"/>
<path d="M28.0957 148.333H37.9464V151.13C35.3399 155.423 34.6424 159.519 34.618 165.161H30.8735C31.0326 159.409 32.3786 155.374 34.7036 151.338H28.0835V148.333H28.0957Z" fill="#F4F7F9"/>
<path d="M45.3372 165.418C41.8252 165.418 39.8062 162.046 39.8062 157.054C39.8062 151.363 42.1801 148.088 45.8511 148.088C47.8457 148.088 49.4732 149.278 50.1095 151.633L47.7111 152.773C47.3196 151.51 46.6832 150.799 45.7165 150.799C44.2114 150.799 43.208 152.565 43.159 156.06V156.109C43.8076 155.202 44.86 154.576 46.0836 154.576C48.4086 154.576 50.3176 156.441 50.3176 159.752C50.3176 163.064 48.0415 165.443 45.3372 165.443V165.418ZM47.0871 159.777C47.0871 158.047 46.3406 157.029 45.2515 157.029C44.4439 157.029 43.6975 157.495 43.159 158.427C43.208 161.248 43.9911 162.732 45.276 162.732C46.3651 162.732 47.0871 161.494 47.0871 159.777Z" fill="#F4F7F9"/>
<path d="M386.891 162.389H392.606V165.161H382.633V162.732C388.372 155.275 389.008 154.601 389.008 153.019C389.008 151.78 388.47 151.019 387.454 151.019C386.341 151.019 385.619 152.025 385.227 153.46L382.437 152.663C383.086 149.891 384.995 148.076 387.687 148.076C390.783 148.076 392.434 150.124 392.434 152.81C392.434 155.324 391.248 156.563 386.903 162.389H386.891Z" fill="#F4F7F9"/>
<path d="M400.352 165.418C396.705 165.418 394.698 162.046 394.698 156.747C394.698 151.449 396.693 148.076 400.352 148.076C404.01 148.076 406.03 151.449 406.03 156.747C406.03 162.046 404.035 165.418 400.352 165.418ZM400.352 150.811C399.006 150.811 398.382 152.283 398.382 155.913V157.593C398.382 161.224 399.006 162.696 400.352 162.696C401.698 162.696 402.322 161.224 402.322 157.593V155.913C402.322 152.283 401.722 150.811 400.352 150.811Z" fill="#F4F7F9"/>
<path d="M412.332 162.389H418.046V165.161H408.073V162.732C413.812 155.275 414.449 154.601 414.449 153.019C414.449 151.78 413.91 151.019 412.895 151.019C411.781 151.019 411.059 152.025 410.667 153.46L407.877 152.663C408.526 149.891 410.435 148.076 413.127 148.076C416.223 148.076 417.875 150.124 417.875 152.81C417.875 155.324 416.688 156.563 412.344 162.389H412.332Z" fill="#F4F7F9"/>
<path d="M425.67 165.418C422.158 165.418 420.139 162.045 420.139 157.054C420.139 151.363 422.513 148.088 426.184 148.088C428.178 148.088 429.806 149.278 430.442 151.633L428.044 152.773C427.652 151.51 427.016 150.799 426.049 150.799C424.544 150.799 423.54 152.565 423.492 156.06V156.109C424.14 155.202 425.192 154.576 426.416 154.576C428.741 154.576 430.65 156.44 430.65 159.752C430.65 163.063 428.374 165.443 425.67 165.443V165.418ZM427.42 159.776C427.42 158.047 426.673 157.029 425.584 157.029C424.776 157.029 424.03 157.495 423.492 158.427C423.54 161.248 424.324 162.732 425.609 162.732C426.698 162.732 427.42 161.494 427.42 159.776Z" fill="#F4F7F9"/>
<path d="M116.617 204.899L119.59 205.377L117.486 218.489L114.512 218.01L116.617 204.899Z" fill="#F4F7F9"/>
<path d="M127.104 210.639L125.868 219.752L123.433 219.421L125.219 206.26L128.205 206.665L131.937 215.03L132.99 207.315L135.412 207.646L133.626 220.807L131.631 220.537L127.128 210.639H127.104Z" fill="#F4F7F9"/>
<path d="M149.742 216.735C149.509 219.139 150.305 220.451 151.761 220.598C153.009 220.721 153.804 219.74 154.208 218.268L156.925 218.93C156.166 221.628 154.172 223.296 151.382 223.027C148.151 222.708 146.034 219.789 146.438 215.704C146.842 211.62 149.448 209.045 152.813 209.376C155.738 209.658 157.231 211.718 157.316 214.417L154.331 214.343C154.27 212.871 153.804 211.816 152.593 211.694C151.1 211.547 150.121 212.834 149.889 215.202L149.742 216.735Z" fill="#F4F7F9"/>
<path d="M166.727 224.327C163.264 224.069 161.085 221.138 161.391 217.054C161.685 212.957 164.279 210.381 167.73 210.639C171.193 210.897 173.371 213.828 173.065 217.912C172.759 222.009 170.177 224.584 166.727 224.327ZM166.898 222.033C168.587 222.156 169.468 220.684 169.639 218.243L169.725 217.066C169.908 214.601 169.247 213.043 167.559 212.92C165.858 212.798 164.989 214.245 164.818 216.71L164.732 217.888C164.548 220.328 165.197 221.91 166.898 222.033Z" fill="#F4F7F9"/>
<path d="M180.823 215.79L180.371 224.977L177.911 224.854L178.572 211.583L181.582 211.731L186.012 219.752L186.403 211.976L188.839 212.099L188.178 225.369L186.159 225.271L180.823 215.79Z" fill="#F4F7F9"/>
<path d="M193.452 212.282L196.535 212.368L199.154 222.438L202.36 212.54L204.967 212.614L200.476 225.774L197.196 225.676L193.464 212.282H193.452Z" fill="#F4F7F9"/>
<path d="M209.727 212.687L218.684 212.761L218.66 215.005L212.676 214.956L212.651 217.998L216.579 218.035L216.555 220.291L212.627 220.255L212.603 223.75L218.807 223.799L218.782 226.044L209.604 225.97L209.715 212.687H209.727Z" fill="#F4F7F9"/>
<path d="M226.981 225.995L223.971 226.031L223.812 212.749L229.673 212.675C232.536 212.638 234.445 213.889 234.47 216.391C234.494 218.268 233.112 219.482 231.888 219.899L234.666 225.909L231.398 225.946L228.927 220.341L226.92 220.365L226.993 225.995H226.981ZM226.846 214.944L226.883 218.243L229.306 218.219C230.627 218.206 231.313 217.581 231.3 216.538C231.288 215.496 230.578 214.907 229.257 214.919L226.834 214.944H226.846Z" fill="#F4F7F9"/>
<path d="M238.691 223.211L240.6 221.616C241.469 222.928 242.815 223.738 244.271 223.689C245.556 223.64 246.413 222.941 246.376 221.91C246.29 219.298 239.34 221.248 239.181 216.465C239.095 213.951 241.286 212.233 243.941 212.148C246.303 212.074 247.918 213.104 248.872 214.564L246.915 215.987C246.205 214.907 245.165 214.257 243.978 214.294C242.827 214.331 242.032 214.981 242.069 215.937C242.154 218.415 249.166 216.551 249.325 221.334C249.411 223.996 247.049 225.774 244.284 225.872C241.849 225.958 239.805 224.94 238.704 223.223L238.691 223.211Z" fill="#F4F7F9"/>
<path d="M256.753 211.816L260.253 211.62L265.123 224.646L262.1 224.817L260.913 221.592L256.68 221.825L255.847 225.173L253.339 225.308L256.753 211.816ZM260.155 219.507L258.429 214.76L257.206 219.666L260.155 219.507Z" fill="#F4F7F9"/>
<path d="M266.812 211.228L277.176 210.443L277.347 212.687L273.664 212.969L274.496 223.983L271.498 224.216L270.666 213.202L266.983 213.484L266.812 211.24V211.228Z" fill="#F4F7F9"/>
<path d="M282.095 209.989L285.093 209.707L286.329 222.928L283.331 223.211L282.095 209.989Z" fill="#F4F7F9"/>
<path d="M297.489 221.972C294.038 222.364 291.358 219.899 290.893 215.827C290.428 211.755 292.484 208.738 295.923 208.346C299.361 207.953 302.053 210.418 302.518 214.49C302.983 218.562 300.928 221.579 297.489 221.972ZM297.232 219.691C298.908 219.494 299.496 217.888 299.227 215.459L299.092 214.294C298.811 211.841 297.868 210.431 296.192 210.627C294.491 210.823 293.916 212.405 294.197 214.858L294.332 216.023C294.613 218.452 295.531 219.887 297.232 219.691Z" fill="#F4F7F9"/>
<path d="M309.738 210.933L311.035 220.034L308.6 220.377L306.728 207.229L309.702 206.8L315.575 213.816L314.474 206.113L316.885 205.77L318.757 218.918L316.762 219.2L309.726 210.921L309.738 210.933Z" fill="#F4F7F9"/>
<path d="M96.9156 154.736H70.8145C70.1387 154.736 69.5908 155.285 69.5908 155.962C69.5908 156.64 70.1387 157.189 70.8145 157.189H96.9156C97.5914 157.189 98.1393 156.64 98.1393 155.962C98.1393 155.285 97.5914 154.736 96.9156 154.736Z" fill="#F4F7F9"/>
<path d="M362.638 154.736H336.537C335.861 154.736 335.313 155.285 335.313 155.962C335.313 156.64 335.861 157.189 336.537 157.189H362.638C363.314 157.189 363.861 156.64 363.861 155.962C363.861 155.285 363.314 154.736 362.638 154.736Z" fill="#F4F7F9"/>
<path d="M123.959 131.616H135.412L142.289 174.126H133.246L131.949 165.234H125.55L124.252 174.126H117.033L123.959 131.616ZM130.885 158.28L128.658 143.145L126.48 158.28H130.885Z" fill="#F4F7F9"/>
<path d="M160.021 174.126L155.848 144.924V174.126H148.383V131.616H160.718L163.716 152.7L166.885 131.616H178.571V174.126H169.59V144.924L165.246 174.126H160.021Z" fill="#F4F7F9"/>
<path d="M186.269 131.616H205.713V138.558H195.605V148.861H202.715V155.864H195.605V167.172H206.117V174.114H186.256V131.604L186.269 131.616Z" fill="#F4F7F9"/>
<path d="M222.098 174.126H212.761V131.616H224.093C231.435 131.616 236.66 135.566 236.66 143.746C236.66 148.333 234.775 151.633 232.083 153.693L236.843 174.126H227.152L223.628 155.987C223.334 156.048 222.392 156.048 222.098 156.048V174.126ZM222.098 138.325V149.866H222.918C225.855 149.866 227.556 147.867 227.556 144.151C227.556 140.435 225.855 138.325 222.918 138.325H222.098Z" fill="#F4F7F9"/>
<path d="M243.011 131.616H252.347V174.126H243.011V131.616Z" fill="#F4F7F9"/>
<path d="M269.21 154.809C269.21 164.584 270.03 167.405 272.024 167.405C273.725 167.405 274.312 165.406 274.374 159.924H283.245C283.245 169.404 278.718 174.642 272.257 174.642C262.981 174.642 259.273 166.044 259.273 152.859C259.273 139.674 262.969 131.077 272.257 131.077C278.718 131.077 283.245 136.314 283.245 145.795H274.374C274.312 140.324 273.725 138.313 272.024 138.313C270.03 138.313 269.21 141.134 269.21 150.615V154.797V154.809Z" fill="#F4F7F9"/>
<path d="M294.467 131.616H305.92L312.797 174.126H303.754L302.457 165.234H296.057L294.76 174.126H287.541L294.467 131.616ZM301.393 158.28L299.165 143.145L296.987 158.28H301.393Z" fill="#F4F7F9"/>
</g>
<defs>
<clipPath id="clip0_1_175">
<rect width="430.65" height="225.294" fill="white" transform="translate(0 0.75)"/>
</clipPath>
</defs>
</svg>
